<?xml version="1.0" encoding="UTF-8" standalone="no"?>
<!DOCTYPE svg PUBLIC "-//W3C//DTD SVG 1.1//EN" "http://www.w3.org/Graphics/SVG/1.1/DTD/svg11.dtd">
<svg width="100%" height="100%" viewBox="0 0 762 762" version="1.1" xmlns="http://www.w3.org/2000/svg" xmlns:xlink="http://www.w3.org/1999/xlink" xml:space="preserve" xmlns:serif="http://www.serif.com/" style="fill-rule:evenodd;clip-rule:evenodd;stroke-linejoin:round;stroke-miterlimit:2;">
    <g transform="matrix(1,0,0,1,-247.561613,-232.01445)">
        <path d="M528.741,770C528.74,782.469 528.74,794.437 528.74,806.744L435.289,806.744L435.289,454.432C466.267,451.852 497.177,449.278 528.658,446.656L528.658,493.701C565.889,449.934 610.849,432.719 666.947,448.18C659.291,478.807 651.716,509.106 644.485,538.035C630.542,536.679 617.4,534.365 604.26,534.375C586.441,534.39 569.677,539.389 555.713,551.178C539.671,564.722 532.011,582.783 530.179,603.149C528.84,618.036 528.831,633.07 528.77,648.04C528.606,688.526 528.732,729.013 528.741,770Z" style="fill:rgb(243,243,243);fill-rule:nonzero;"/>
    </g>
    <g transform="matrix(1,0,0,1,-247.561613,-232.01445)">
        <path d="M955.229,482.989C955.76,484.131 956.291,485.273 956.549,486.896C952.982,491.905 953.285,496.407 957.653,501.778C959.756,504.363 959.128,505.591 956.44,507.075C951.918,509.571 948.047,508.899 944.256,504.772C940.47,512.849 934.357,506.69 928.779,508.606C931.371,503.288 939.346,504.037 939.853,498.146C939.443,497.737 939.033,497.328 938.623,496.919C937.252,497.855 935.882,498.79 933.981,500.087C933.212,498.279 932.352,496.898 932.045,495.404C931.339,491.972 930.098,490.816 927.161,493.619C924.618,496.045 921.969,498.359 919.474,500.625C916.971,499.45 914.371,498.231 911.772,497.012C910.826,494.922 909.88,492.832 909.283,490.372C910.185,489.174 911.334,487.745 911.2,487.611C909.54,485.965 907.692,484.509 905.893,483.003C903.991,479.231 902.09,475.458 900.515,471.327C901.831,469.334 903.734,467.588 903.551,466.098C903.37,464.635 901.253,463.093 899.64,462.229C898.474,461.605 896.744,462.033 895.265,461.992C893.296,458.668 891.326,455.344 889.609,451.511C889.172,450.338 888.483,449.674 887.795,449.01C886.21,446.61 884.625,444.21 883.05,441.093C884.976,435.912 882.942,434.639 878.783,435.085C877.224,432.967 875.665,430.85 874.103,428.055C874.7,426.22 875.301,425.062 876.395,422.952C873.927,423.657 872.55,424.05 871.173,424.444C857.651,407.28 843.055,391.134 826.411,376.903C787.715,343.815 743.726,321.053 693.87,310.533C615.465,293.988 541.418,305.874 472.141,346.397C432.93,369.334 401.405,400.405 375.27,437.757C373.332,437.368 371.98,436.978 370.628,436.588C370.758,437.897 370.794,439.226 371.05,440.51C371.232,441.42 371.712,442.271 372.058,443.149C370.661,445.573 369.264,447.997 367.5,450.244C364.772,448.682 362.41,447.296 360.047,445.91C359.609,446.294 359.17,446.677 358.731,447.061C360.173,450.756 361.614,454.451 363.056,458.146C362.186,459.949 361.316,461.752 359.781,463.771C351.536,464.751 348.249,457.424 342.358,454.894C341.004,454.312 340.692,451.124 340.069,449.084C339.692,447.852 339.99,446.315 339.379,445.27C336.363,440.115 333.145,435.079 329.998,429.566C329.98,427.392 329.961,425.653 329.942,423.914C329.942,423.914 330.001,423.969 330.279,423.937C331.37,423.266 332.183,422.628 333.418,421.993C341.53,421.878 342.493,420.475 340.222,412.994C339.797,411.596 339.778,410.075 339.572,408.61C339.572,408.61 339.885,408.883 340.115,408.818C342.487,407.498 344.727,406.381 346.741,404.947C348.477,403.712 350.482,402.358 351.305,400.568C351.665,399.786 349.37,397.785 348.281,396.337C350.023,394.027 351.764,391.716 354.149,389.213C356.195,388.343 357.597,387.667 359.005,387.363C359.675,388.696 360.339,389.656 361.003,390.617C361.662,389.647 362.804,388.707 362.868,387.699C362.967,386.156 362.322,384.565 361.941,382.65C361.438,381.82 360.985,381.334 360.533,380.849C360.959,380.244 361.386,379.639 362.423,378.931C364.689,377.552 366.345,376.276 368.26,374.781C368.663,373.68 368.806,372.798 368.949,371.916C368.949,371.916 368.988,371.99 369.3,371.929C370.07,371.15 370.527,370.431 370.984,369.712C371.254,369.293 371.525,368.874 372.313,368.219C373.828,366.486 374.827,364.99 375.826,363.493C389.917,347.871 405.797,334.272 422.677,321.766C460.021,294.096 501.574,275.454 546.556,264.43C580.499,256.112 615.009,253.522 649.916,255.612C702.204,258.743 751.101,273.454 796.905,298.54C823.307,313 847.412,330.713 869.04,352.441C869.755,353.398 870.36,353.76 870.965,354.121C872.538,355.555 874.111,356.988 875.578,358.933C877.496,361.223 879.52,363.003 881.544,364.782C885.004,368.542 888.464,372.302 891.997,376.787C893.254,378.588 894.437,379.664 895.621,380.741C896.999,382.501 898.377,384.262 899.922,386.662C901.134,391.901 902.44,396.283 908.156,396.994C908.773,397.708 909.391,398.423 909.933,399.754C911.159,404.606 912.052,409.046 914.006,412.956C914.609,414.165 917.235,418.061 920.252,414.438C922.737,418.288 925.222,422.138 927.422,426.491C923.79,429.459 923.666,432.588 926.305,435.305C928.613,437.681 930.558,441.712 935.198,439.572C937.452,443.702 939.706,447.832 941.601,452.499C939.884,457.857 938.526,462.679 937.207,467.366C941.337,466.85 944.797,466.417 948.257,465.985C949.524,468.733 950.792,471.481 951.795,474.788C947.852,479.636 948.542,481.061 955.229,482.989M831.241,348.687C832.954,351.009 834.523,355.123 836.41,355.274C840.148,355.573 838.548,351.375 839.151,349.035C839.344,348.281 839.517,347.523 839.958,345.699C836.646,346.604 834.091,347.302 831.241,348.687M925.786,481.216C923.354,480.493 920.921,479.769 918.489,479.046C918.247,479.279 918.005,479.512 917.763,479.745C921.054,482.271 924.344,484.797 927.635,487.323C928.25,486.874 928.864,486.426 929.478,485.977C928.501,484.364 927.525,482.751 925.786,481.216M908.436,458.38C908.211,458.929 907.986,459.478 907.761,460.028C908.323,460.127 908.885,460.225 909.447,460.324C909.282,459.764 909.118,459.203 908.436,458.38Z" style="fill:rgb(246,246,246);fill-rule:nonzero;"/>
    </g>
    <g transform="matrix(1,0,0,1,-247.561613,-232.01445)">
        <path d="M738.999,952.663C714.055,961.859 688.23,967.186 661.827,969.587C584.576,976.613 513.108,959.219 447.274,918.311C402.268,890.345 365.724,853.836 336.735,809.562C314.847,776.132 298.73,740.206 288.928,701.461C288.362,699.224 287.911,696.959 287.306,694.252C301.377,689.734 315.396,685.233 329.869,680.585C332.081,688.466 334.082,696.129 336.382,703.702C351.459,753.359 377.108,796.798 413.409,833.885C454.579,875.947 503.62,904.526 560.882,918.328C619.748,932.517 677.653,928.81 734.277,907.055C739.077,905.21 743.785,903.122 748.986,901.058C749.436,900.969 749.742,900.846 749.742,900.846C750.214,900.551 750.686,900.255 751.578,900.326C753.212,906.132 746.614,910.862 750.542,916.561C750.588,916.629 750.451,916.934 750.336,916.985C745.102,919.299 744.777,923.462 746.04,928.254C746.114,928.534 745.871,928.887 745.82,929.213C745.42,931.767 745.031,934.324 744.488,937.864C743.917,938.798 742.352,940.651 741.578,942.79C740.426,945.975 739.831,949.362 738.999,952.663Z" style="fill:rgb(241,240,241);fill-rule:nonzero;"/>
    </g>
    <g transform="matrix(1,0,0,1,-247.561613,-232.01445)">
        <path d="M739.359,952.634C739.831,949.362 740.426,945.975 741.578,942.79C742.352,940.651 743.917,938.798 744.488,937.864C745.031,934.324 745.42,931.767 745.82,929.213C745.871,928.887 746.114,928.534 746.04,928.254C744.777,923.462 745.102,919.299 750.336,916.985C750.451,916.934 750.588,916.629 750.542,916.561C746.614,910.862 753.212,906.132 751.998,900.26C753.23,899.125 754.462,898.422 756.346,897.885C758.849,899.217 760.7,900.383 762.551,901.549C763.042,899.343 763.541,897.139 764.012,894.928C764.08,894.612 764.007,894.266 763.999,893.934C764.569,893.558 765.139,893.182 766.387,892.839C769.339,894.799 771.757,896.583 773.849,898.69C776.487,901.346 779.201,901.055 781.64,898.926C782.406,898.258 782.507,895.934 781.964,894.838C780.6,892.083 778.695,889.596 777.006,887.002C777.971,886.313 778.935,885.624 780.542,885.052C783.895,887.622 787.215,889.38 790.269,886.951C791.163,886.239 789.407,882.195 788.865,879.679C793.518,876.446 798.17,873.213 803.531,870.039C806.132,870.354 808.213,871.21 809.857,870.689C811.367,870.21 812.406,868.246 813.653,866.936C812.345,866.291 811.037,865.646 809.73,865.001C814.56,860.976 819.39,856.951 824.693,853.165C827.443,855.76 829.597,858.264 832.098,860.351C832.613,860.781 835.236,859.95 835.504,859.203C837.02,854.978 833.777,850.068 829.115,849.03C831.126,847.055 833.136,845.079 835.777,843.146C837.697,844.653 838.931,846.171 840.291,847.567C842.071,849.395 843.721,851.5 845.844,852.806C848.543,854.467 851.997,852.115 851.79,849.007C851.395,843.076 849.362,837.977 844.022,834.703C846.165,832.295 848.308,829.887 850.734,827.729C852.975,831.4 854.642,835.053 857.065,838.105C857.801,839.033 861.25,839.039 862.314,838.13C863.397,837.205 863.908,834.186 863.204,832.863C861.157,829.019 858.377,825.565 855.884,821.958C857.67,819.713 859.455,817.468 861.828,815.266C865.453,821.179 869.767,817.701 874.963,817.268C873.323,815.377 872.367,814.375 871.53,813.284C870.703,812.205 869.836,811.097 869.355,809.859C869.248,809.582 870.804,808.111 871.373,808.232C872.666,808.505 873.919,809.297 875.008,810.118C876.424,811.186 877.962,813.709 878.93,813.474C883.133,812.455 886.542,813.199 889.939,815.784C890.513,816.22 892.513,814.782 893.853,814.21C892.821,813.473 891.853,812.617 890.742,812.029C889.175,811.199 887.269,810.862 885.92,809.794C881.784,806.519 877.844,802.996 873.828,799.57C875.651,796.805 877.473,794.04 879.905,791.334C883.547,791.624 888.309,793.126 889.263,791.829C891.45,788.853 888.625,786.201 885.637,784.544C885.247,784.327 885.049,783.766 884.762,783.365C885.912,781.323 887.063,779.282 888.807,777.272C892.531,778.748 895.645,780.234 898.82,781.576C899.175,781.726 900.11,781.181 900.353,780.731C900.593,780.286 900.45,779.479 900.206,778.958C899.201,776.817 898.334,774.545 896.94,772.677C896.037,771.467 894.309,770.871 892.951,770C897.879,759.869 903.157,749.892 907.67,739.579C923.116,704.279 931.852,667.423 933.845,628.837C936.188,583.441 928.21,539.946 911.789,497.399C914.371,498.231 916.971,499.45 919.474,500.625C921.969,498.359 924.618,496.045 927.161,493.619C930.098,490.816 931.339,491.972 932.045,495.404C932.352,496.898 933.212,498.279 933.981,500.087C935.882,498.79 937.252,497.855 938.623,496.919C939.033,497.328 939.443,497.737 939.853,498.146C939.346,504.037 931.371,503.288 928.779,508.606C934.357,506.69 940.47,512.849 944.256,504.772C948.047,508.899 951.918,509.571 956.44,507.075C959.128,505.591 959.756,504.363 957.653,501.778C953.285,496.407 952.982,491.905 956.562,487.215C966.263,510.235 972.244,534.381 975.968,559.028C985.323,620.961 978.555,681.336 956.055,739.68C948.907,758.214 939.16,775.745 930.322,793.557C930.211,792.117 930.379,790.854 930.546,789.602C924.079,788.494 923.054,789.259 923.001,795.03C922.992,796.02 923,797.01 922.638,797.96C921.01,797.203 919.201,796.799 918.575,795.712C916.469,792.053 913.565,792.835 908.889,793.793C911.168,797.215 913.437,799.786 914.742,802.778C916.716,807.303 919.194,807.926 922.919,804.999C921.807,807.221 920.694,809.443 919.285,811.472C916.743,807.731 913.87,807.487 910.949,809.121C910.643,811.815 910.393,813.874 910.179,815.937C909.82,819.402 909.484,822.869 909.138,826.335C906.615,829.772 904.091,833.208 901.283,836.425C900.562,835.148 900.125,834.091 899.688,833.033C899.099,833.218 898.511,833.403 897.922,833.588C898.328,835.504 898.734,837.421 899.14,839.338C898.208,840.607 897.277,841.876 895.667,843.215C893.353,843.52 891.629,843.507 890.108,844.056C888.342,844.693 886.753,845.824 885.088,846.74C886.741,847.923 888.395,849.107 890.048,850.29C887.596,853.154 885.145,856.018 882.209,858.688C879.939,858.528 878.151,858.563 876.364,858.598C877.041,860.112 877.718,861.626 878.395,863.141C876.179,865.446 873.964,867.752 871.37,869.808C870.129,868.64 869.265,867.721 868.402,866.803C867.833,867.197 867.265,867.59 866.696,867.984C867.56,869.36 868.424,870.737 869.288,872.114C868.654,872.842 868.021,873.57 866.737,874.308C864.235,875.182 862.438,876.621 860.521,876.805C854.551,877.377 854.137,881.278 854.456,885.851C849.648,889.894 844.841,893.937 839.387,897.944C835.149,897.577 830.983,901.071 830.069,905.182C827.384,907.126 824.698,909.071 821.344,910.947C814.982,910.417 810.137,913.006 806.514,916.667C802.487,920.737 798.726,923.896 792.429,922.451L792.429,926.146L797.06,926.146C794.786,927.476 792.511,928.807 789.546,930.043C785.675,928.631 784.054,929.665 784.051,933.138C779.628,935.441 775.205,937.745 770.349,939.75C768.914,938.976 767.912,938.499 766.91,938.023C766.738,938.328 766.566,938.634 766.393,938.939C766.939,939.651 767.484,940.363 768.03,941.074C758.593,944.918 749.156,948.761 739.359,952.634M758.036,922.736C757.373,922.778 756.254,922.605 756.117,922.896C754.599,926.099 753.111,929.328 751.857,932.642C750.035,937.46 748.412,942.353 746.704,947.214C747.131,947.458 747.558,947.701 747.986,947.945C750.647,946.804 753.309,945.664 756.18,944.434C753.73,938.134 755.14,933.516 760.762,930.768C759.831,928.048 759.04,925.739 758.036,922.736M766.46,915.006C766.716,914.226 767.276,913.403 767.175,912.672C766.796,909.932 766.201,907.222 765.688,904.501C763.876,905.749 762.063,906.995 760.255,908.247C760.122,908.339 759.934,908.469 759.919,908.598C759.651,910.968 759.405,913.339 759.155,915.711C761.457,915.711 763.759,915.711 766.46,915.006M907.478,757.975C909.63,756.03 909.299,753.893 906.97,752.884C905.978,752.454 903.681,753.775 902.692,754.918C901.434,756.374 900.9,758.456 900.054,760.268C900.447,760.647 900.839,761.026 901.232,761.405C903.125,760.421 905.018,759.437 907.478,757.975M936.033,776.003C936.743,776.184 937.998,776.658 938.083,776.501C939.448,773.971 940.664,771.361 941.914,768.768C941.284,768.439 940.653,768.109 940.022,767.78C938.684,770.279 937.346,772.778 936.033,776.003M878.797,827.099C880.419,827.083 882.042,827.068 883.664,827.052C883.484,825.987 883.672,824.351 883.06,823.955C880.272,822.154 878.936,823.731 878.797,827.099M862.325,845.084C860.738,846.928 859.151,848.773 857.564,850.617C858.038,850.975 858.512,851.332 858.985,851.69C860.882,849.945 864.804,849.675 862.325,845.084M801.654,895.354C801.234,896.288 800.814,897.221 800.394,898.155C801.786,898.364 803.179,898.573 804.571,898.782C804.753,898.32 804.934,897.858 805.115,897.397C804.204,896.707 803.292,896.018 801.654,895.354M775.507,934.3C776.873,934.069 778.239,933.838 779.605,933.607C778.898,932.367 778.362,932.083 778.005,932.231C777.124,932.596 776.325,933.16 775.507,934.3Z" style="fill:rgb(242,242,242);fill-rule:nonzero;"/>
    </g>
    <g transform="matrix(1,0,0,1,-247.561613,-232.01445)">
        <path d="M329.998,430.001C333.145,435.079 336.363,440.115 339.379,445.27C339.99,446.315 339.692,447.852 340.069,449.084C340.692,451.124 341.004,454.312 342.358,454.894C348.249,457.424 351.536,464.751 359.521,463.982C346.233,490.683 335.801,518.529 329.415,547.937C323.512,575.115 321.618,602.519 323.218,630.196C323.452,634.241 322.601,635.93 318.547,637.093C305.507,640.835 292.616,645.098 279.029,649.36C272.479,584.777 282.378,523.343 308.932,464.399C309.914,465.109 310.381,465.853 310.847,466.597C310.997,464.251 315.41,461.831 310.769,459.922C311.48,458.137 312.192,456.352 313.46,454.223C315.354,450.952 316.693,448.024 318.031,445.097C318.233,444.534 318.435,443.972 319.284,443.213C322.977,443.239 324.563,442.43 325.256,438.843C325.863,435.707 328.344,432.934 329.998,430.001Z" style="fill:rgb(243,242,242);fill-rule:nonzero;"/>
    </g>
    <g transform="matrix(1,0,0,1,-247.561613,-232.01445)">
        <path d="M653,773.008C645.835,773.007 639.169,773.023 632.503,773.008C620.227,772.981 611.449,764.545 611.326,752.675C611.21,741.443 620.346,732.726 632.403,732.722C679.897,732.703 727.392,732.721 774.886,732.75C778.375,732.752 781.919,732.595 785.34,733.132C795.825,734.776 802.801,744.205 801.96,755.178C801.211,764.939 792.664,772.885 782.448,772.902C741.798,772.969 701.148,772.921 660.497,772.922C658.165,772.922 655.833,772.98 653,773.008Z" style="fill:rgb(241,241,241);fill-rule:nonzero;"/>
    </g>
    <g transform="matrix(1,0,0,1,-247.561613,-232.01445)">
        <path d="M733,615.988C749.313,615.985 765.126,615.958 780.94,615.989C793.239,616.012 802.013,624.591 801.966,636.464C801.92,647.888 793.071,656.107 780.785,656.114C741.169,656.137 701.554,656.162 661.938,656.162C650.253,656.162 641.459,647.606 641.442,636.307C641.424,624.691 650.209,616.004 662.09,615.991C685.56,615.965 709.03,615.986 733,615.988Z" style="fill:rgb(243,243,243);fill-rule:nonzero;"/>
    </g>
    <g transform="matrix(1,0,0,1,-247.561613,-232.01445)">
        <path d="M786.733,501.115C798.025,505.015 803.543,513.691 801.731,524.067C799.912,534.477 791.836,540.659 780.157,540.661C754.165,540.665 728.172,540.738 702.18,540.701C692.523,540.687 683.883,533.714 682.331,524.939C680.496,514.563 685.706,505.014 695.166,501.821C697.464,501.045 700.003,500.655 702.433,500.644C728.42,500.53 754.408,500.515 780.395,500.521C782.37,500.522 784.345,500.895 786.733,501.115Z" style="fill:rgb(241,241,241);fill-rule:nonzero;"/>
    </g>
    <g transform="matrix(1,0,0,1,-247.561613,-232.01445)">
        <path d="M856.876,541.002C844.815,544.516 834.048,539.921 828.954,529.36C824.169,519.441 827.311,507.185 836.234,500.958C846.273,493.954 859.953,496.234 867.282,506.133C874.643,516.074 872.675,530.272 862.826,537.645C861.116,538.926 859.114,539.816 856.876,541.002Z" style="fill:rgb(242,242,242);fill-rule:nonzero;"/>
    </g>
    <g transform="matrix(1,0,0,1,-247.561613,-232.01445)">
        <path d="M862.951,733C870.837,740.112 873.612,748.434 870.396,758.354C867.558,767.107 861.16,771.815 852.332,773.435C843.814,774.998 834.019,770.108 829.596,762.217C825.033,754.076 826.112,743.479 832.249,736.162C838.115,729.17 847.827,726.364 856.069,729.454C858.36,730.313 860.468,731.661 862.951,733Z" style="fill:rgb(239,239,239);fill-rule:nonzero;"/>
    </g>
    <g transform="matrix(1,0,0,1,-247.561613,-232.01445)">
        <path d="M839.551,614.371C852.055,609.405 864.782,614.155 869.76,625.332C874.903,636.878 869.98,650.307 858.63,655.695C847.962,660.759 834.854,656.284 829.254,645.665C823.32,634.416 827.493,621.388 839.551,614.371Z" style="fill:rgb(241,241,241);fill-rule:nonzero;"/>
    </g>
    <g transform="matrix(1,0,0,1,-247.561613,-232.01445)">
        <path d="M873.528,799.747C877.844,802.996 881.784,806.519 885.92,809.794C887.269,810.862 889.175,811.199 890.742,812.029C891.853,812.617 892.821,813.473 893.853,814.21C892.513,814.782 890.513,816.22 889.939,815.784C886.542,813.199 883.133,812.455 878.93,813.474C877.962,813.709 876.424,811.186 875.008,810.118C873.919,809.297 872.666,808.505 871.373,808.232C870.804,808.111 869.248,809.582 869.355,809.859C869.836,811.097 870.703,812.205 871.53,813.284C872.367,814.375 873.323,815.377 874.963,817.268C869.767,817.701 865.453,821.179 862.118,815.112C865.622,809.919 869.425,804.921 873.528,799.747Z" style="fill:rgb(241,240,241);fill-rule:nonzero;"/>
    </g>
    <g transform="matrix(1,0,0,1,-247.561613,-232.01445)">
        <path d="M843.746,834.824C849.362,837.977 851.395,843.076 851.79,849.007C851.997,852.115 848.543,854.467 845.844,852.806C843.721,851.5 842.071,849.395 840.291,847.567C838.931,846.171 837.697,844.653 836.086,843.041C838.333,840.243 840.902,837.594 843.746,834.824Z" style="fill:rgb(241,240,241);fill-rule:nonzero;"/>
    </g>
    <g transform="matrix(1,0,0,1,-247.561613,-232.01445)">
        <path d="M855.59,822.096C858.377,825.565 861.157,829.019 863.204,832.863C863.908,834.186 863.397,837.205 862.314,838.13C861.25,839.039 857.801,839.033 857.065,838.105C854.642,835.053 852.975,831.4 851.033,827.592C852.465,825.549 853.88,823.892 855.59,822.096Z" style="fill:rgb(241,240,241);fill-rule:nonzero;"/>
    </g>
    <g transform="matrix(1,0,0,1,-247.561613,-232.01445)">
        <path d="M923.03,804.841C919.194,807.926 916.716,807.303 914.742,802.778C913.437,799.786 911.168,797.215 908.889,793.793C913.565,792.835 916.469,792.053 918.575,795.712C919.201,796.799 921.01,797.203 922.638,798.21C923,798.5 923,799 923,799.442C923.039,801.355 923.079,802.827 923.118,804.299C923.118,804.299 923.141,804.684 923.03,804.841Z" style="fill:rgb(244,244,244);fill-rule:nonzero;"/>
    </g>
    <g transform="matrix(1,0,0,1,-247.561613,-232.01445)">
        <path d="M776.651,887.059C778.695,889.596 780.6,892.083 781.964,894.838C782.507,895.934 782.406,898.258 781.64,898.926C779.201,901.055 776.487,901.346 773.849,898.69C771.757,896.583 769.339,894.799 766.65,892.8C769.588,890.857 772.942,888.986 776.651,887.059Z" style="fill:rgb(241,240,241);fill-rule:nonzero;"/>
    </g>
    <g transform="matrix(1,0,0,1,-247.561613,-232.01445)">
        <path d="M797.415,926.096C795.651,926.146 794.242,926.146 792.429,926.146L792.429,922.451C798.726,923.896 802.487,920.737 806.514,916.667C810.137,913.006 814.982,910.417 821.017,911.018C813.495,916.119 805.632,921.082 797.415,926.096Z" style="fill:rgb(241,240,241);fill-rule:nonzero;"/>
    </g>
    <g transform="matrix(1,0,0,1,-247.561613,-232.01445)">
        <path d="M909.44,826.164C909.484,822.869 909.82,819.402 910.179,815.937C910.393,813.874 910.643,811.815 910.949,809.121C913.87,807.487 916.743,807.731 919.003,811.666C915.926,816.699 912.833,821.345 909.44,826.164Z" style="fill:rgb(241,240,241);fill-rule:nonzero;"/>
    </g>
    <g transform="matrix(1,0,0,1,-247.561613,-232.01445)">
        <path d="M948.206,465.612C944.797,466.417 941.337,466.85 937.207,467.366C938.526,462.679 939.884,457.857 941.656,452.886C944.099,456.904 946.128,461.071 948.206,465.612Z" style="fill:rgb(242,242,242);fill-rule:nonzero;"/>
    </g>
    <g transform="matrix(1,0,0,1,-247.561613,-232.01445)">
        <path d="M828.813,849.132C833.777,850.068 837.02,854.978 835.504,859.203C835.236,859.95 832.613,860.781 832.098,860.351C829.597,858.264 827.443,855.76 825.021,853.058C826.088,851.553 827.299,850.393 828.813,849.132Z" style="fill:rgb(241,240,241);fill-rule:nonzero;"/>
    </g>
    <g transform="matrix(1,0,0,1,-247.561613,-232.01445)">
        <path d="M935.162,439.229C930.558,441.712 928.613,437.681 926.305,435.305C923.666,432.588 923.79,429.459 927.5,426.852C930.283,430.769 932.704,434.827 935.162,439.229Z" style="fill:rgb(242,242,242);fill-rule:nonzero;"/>
    </g>
    <g transform="matrix(1,0,0,1,-247.561613,-232.01445)">
        <path d="M892.666,770.178C894.309,770.871 896.037,771.467 896.94,772.677C898.334,774.545 899.201,776.817 900.206,778.958C900.45,779.479 900.593,780.286 900.353,780.731C900.11,781.181 899.175,781.726 898.82,781.576C895.645,780.234 892.531,778.748 889.079,777.096C889.965,774.711 891.173,772.534 892.666,770.178Z" style="fill:rgb(241,240,241);fill-rule:nonzero;"/>
    </g>
    <g transform="matrix(1,0,0,1,-247.561613,-232.01445)">
        <path d="M920.176,414.117C917.235,418.061 914.609,414.165 914.006,412.956C912.052,409.046 911.159,404.606 909.998,400.034C913.46,404.396 916.78,409.096 920.176,414.117Z" style="fill:rgb(242,242,242);fill-rule:nonzero;"/>
    </g>
    <g transform="matrix(1,0,0,1,-247.561613,-232.01445)">
        <path d="M329.998,429.566C328.344,432.934 325.863,435.707 325.256,438.843C324.563,442.43 322.977,443.239 319.522,443.025C322.539,436.791 325.963,430.548 329.665,424.109C329.961,425.653 329.98,427.392 329.998,429.566Z" style="fill:rgb(241,240,241);fill-rule:nonzero;"/>
    </g>
    <g transform="matrix(1,0,0,1,-247.561613,-232.01445)">
        <path d="M923,799L923,798.25C923,797.01 922.992,796.02 923.001,795.03C923.054,789.259 924.079,788.494 930.546,789.602C930.379,790.854 930.211,792.117 930.051,793.768C928.983,796.159 927.907,798.161 926.445,800.12C925.039,799.718 924.019,799.359 923,799Z" style="fill:rgb(241,240,241);fill-rule:nonzero;"/>
    </g>
    <g transform="matrix(1,0,0,1,-247.561613,-232.01445)">
        <path d="M884.476,783.576C885.049,783.766 885.247,784.327 885.637,784.544C888.625,786.201 891.45,788.853 889.263,791.829C888.309,793.126 883.547,791.624 880.194,791.168C881.312,788.557 882.751,786.172 884.476,783.576Z" style="fill:rgb(241,240,241);fill-rule:nonzero;"/>
    </g>
    <g transform="matrix(1,0,0,1,-247.561613,-232.01445)">
        <path d="M339.299,408.793C339.778,410.075 339.797,411.596 340.222,412.994C342.493,420.475 341.53,421.878 333.38,421.582C332.763,420.643 332.605,420.118 332.447,419.592C332.447,419.592 332.531,419.556 332.901,419.628C336.71,419.268 337.329,417.435 335.828,414.55C336.894,412.692 337.96,410.834 339.299,408.793Z" style="fill:rgb(243,242,242);fill-rule:nonzero;"/>
    </g>
    <g transform="matrix(1,0,0,1,-247.561613,-232.01445)">
        <path d="M788.521,879.773C789.407,882.195 791.163,886.239 790.269,886.951C787.215,889.38 783.895,887.622 780.837,884.981C783.051,883.151 785.614,881.509 788.521,879.773Z" style="fill:rgb(241,240,241);fill-rule:nonzero;"/>
    </g>
    <g transform="matrix(1,0,0,1,-247.561613,-232.01445)">
        <path d="M348.107,396.515C349.37,397.785 351.665,399.786 351.305,400.568C350.482,402.358 348.477,403.712 346.741,404.947C344.727,406.381 342.487,407.498 339.973,408.666C342.378,404.618 345.156,400.655 348.107,396.515Z" style="fill:rgb(243,242,242);fill-rule:nonzero;"/>
    </g>
    <g transform="matrix(1,0,0,1,-247.561613,-232.01445)">
        <path d="M363.337,457.961C361.614,454.451 360.173,450.756 358.731,447.061C359.17,446.677 359.609,446.294 360.047,445.91C362.41,447.296 364.772,448.682 367.225,450.48C366.083,453.187 364.851,455.482 363.337,457.961Z" style="fill:rgb(243,242,242);fill-rule:nonzero;"/>
    </g>
    <g transform="matrix(1,0,0,1,-247.561613,-232.01445)">
        <path d="M895.324,462.328C896.744,462.033 898.474,461.605 899.64,462.229C901.253,463.093 903.37,464.635 903.551,466.098C903.734,467.588 901.831,469.334 900.474,470.97C898.531,468.203 896.957,465.434 895.324,462.328Z" style="fill:rgb(242,242,242);fill-rule:nonzero;"/>
    </g>
    <g transform="matrix(1,0,0,1,-247.561613,-232.01445)">
        <path d="M854.774,885.703C854.137,881.278 854.551,877.377 860.521,876.805C862.438,876.621 864.235,875.182 866.485,874.459C862.954,878.252 859.023,881.904 854.774,885.703Z" style="fill:rgb(241,240,241);fill-rule:nonzero;"/>
    </g>
    <g transform="matrix(1,0,0,1,-247.561613,-232.01445)">
        <path d="M890.32,850.165C888.395,849.107 886.741,847.923 885.088,846.74C886.753,845.824 888.342,844.693 890.108,844.056C891.629,843.507 893.353,843.52 895.436,843.396C894.119,845.685 892.355,847.863 890.32,850.165Z" style="fill:rgb(241,240,241);fill-rule:nonzero;"/>
    </g>
    <g transform="matrix(1,0,0,1,-247.561613,-232.01445)">
        <path d="M809.426,865.101C811.037,865.646 812.345,866.291 813.653,866.936C812.406,868.246 811.367,870.21 809.857,870.689C808.213,871.21 806.132,870.354 803.843,869.941C805.337,868.256 807.23,866.728 809.426,865.101Z" style="fill:rgb(241,240,241);fill-rule:nonzero;"/>
    </g>
    <g transform="matrix(1,0,0,1,-247.561613,-232.01445)">
        <path d="M763.643,893.976C764.007,894.266 764.08,894.612 764.012,894.928C763.541,897.139 763.042,899.343 762.551,901.549C760.7,900.383 758.849,899.217 756.653,897.876C758.634,896.474 760.96,895.246 763.643,893.976Z" style="fill:rgb(241,240,241);fill-rule:nonzero;"/>
    </g>
    <g transform="matrix(1,0,0,1,-247.561613,-232.01445)">
        <path d="M908.082,396.653C902.44,396.283 901.134,391.901 900.128,386.897C902.78,389.765 905.394,393.039 908.082,396.653Z" style="fill:rgb(242,242,242);fill-rule:nonzero;"/>
    </g>
    <g transform="matrix(1,0,0,1,-247.561613,-232.01445)">
        <path d="M955.227,482.617C948.542,481.061 947.852,479.636 951.814,475.154C953.141,477.389 954.182,479.817 955.227,482.617Z" style="fill:rgb(242,242,242);fill-rule:nonzero;"/>
    </g>
    <g transform="matrix(1,0,0,1,-247.561613,-232.01445)">
        <path d="M905.937,483.362C907.692,484.509 909.54,485.965 911.2,487.611C911.334,487.745 910.185,489.174 909.271,490.014C907.933,487.925 906.958,485.823 905.937,483.362Z" style="fill:rgb(242,242,242);fill-rule:nonzero;"/>
    </g>
    <g transform="matrix(1,0,0,1,-247.561613,-232.01445)">
        <path d="M878.676,863.02C877.718,861.626 877.041,860.112 876.364,858.598C878.151,858.563 879.939,858.528 881.897,858.828C881.032,860.408 879.995,861.653 878.676,863.02Z" style="fill:rgb(241,240,241);fill-rule:nonzero;"/>
    </g>
    <g transform="matrix(1,0,0,1,-247.561613,-232.01445)">
        <path d="M830.403,905.092C830.983,901.071 835.149,897.577 839.071,898.039C836.514,900.448 833.625,902.726 830.403,905.092Z" style="fill:rgb(241,240,241);fill-rule:nonzero;"/>
    </g>
    <g transform="matrix(1,0,0,1,-247.561613,-232.01445)">
        <path d="M372.346,442.974C371.712,442.271 371.232,441.42 371.05,440.51C370.794,439.226 370.758,437.897 370.628,436.588C371.98,436.978 373.332,437.368 375.007,437.955C374.431,439.701 373.532,441.25 372.346,442.974Z" style="fill:rgb(243,242,242);fill-rule:nonzero;"/>
    </g>
    <g transform="matrix(1,0,0,1,-247.561613,-232.01445)">
        <path d="M310.535,460.145C315.41,461.831 310.997,464.251 310.847,466.597C310.381,465.853 309.914,465.109 309.184,464.164C309.381,462.765 309.841,461.567 310.535,460.145Z" style="fill:rgb(241,240,241);fill-rule:nonzero;"/>
    </g>
    <g transform="matrix(1,0,0,1,-247.561613,-232.01445)">
        <path d="M878.872,435.415C882.942,434.639 884.976,435.912 883.004,440.756C881.619,439.339 880.29,437.542 878.872,435.415Z" style="fill:rgb(242,242,242);fill-rule:nonzero;"/>
    </g>
    <g transform="matrix(1,0,0,1,-247.561613,-232.01445)">
        <path d="M317.754,445.284C316.693,448.024 315.354,450.952 313.687,453.943C314.731,451.162 316.104,448.317 317.754,445.284Z" style="fill:rgb(241,240,241);fill-rule:nonzero;"/>
    </g>
    <g transform="matrix(1,0,0,1,-247.561613,-232.01445)">
        <path d="M869.545,872.037C868.424,870.737 867.56,869.36 866.696,867.984C867.265,867.59 867.833,867.197 868.402,866.803C869.265,867.721 870.129,868.64 871.054,869.938C870.677,870.865 870.24,871.412 869.545,872.037Z" style="fill:rgb(241,240,241);fill-rule:nonzero;"/>
    </g>
    <g transform="matrix(1,0,0,1,-247.561613,-232.01445)">
        <path d="M881.392,364.475C879.52,363.003 877.496,361.223 875.698,359.235C877.696,360.74 879.468,362.454 881.392,364.475Z" style="fill:rgb(234,234,234);fill-rule:nonzero;"/>
    </g>
    <g transform="matrix(1,0,0,1,-247.561613,-232.01445)">
        <path d="M899.416,839.194C898.734,837.421 898.328,835.504 897.922,833.588C898.511,833.403 899.099,833.218 899.688,833.033C900.125,834.091 900.562,835.148 900.998,836.598C900.562,837.677 900.127,838.363 899.416,839.194Z" style="fill:rgb(241,240,241);fill-rule:nonzero;"/>
    </g>
    <g transform="matrix(1,0,0,1,-247.561613,-232.01445)">
        <path d="M368,375C366.345,376.276 364.689,377.552 362.657,378.775C363.384,377.313 364.488,375.904 366.117,374.276C367.094,374.372 367.547,374.686 368,375Z" style="fill:rgb(242,242,242);fill-rule:nonzero;"/>
    </g>
    <g transform="matrix(1,0,0,1,-247.561613,-232.01445)">
        <path d="M335.542,414.723C337.329,417.435 336.71,419.268 332.913,419.584C333.455,417.944 334.356,416.42 335.542,414.723Z" style="fill:rgb(241,240,241);fill-rule:nonzero;"/>
    </g>
    <g transform="matrix(1,0,0,1,-247.561613,-232.01445)">
        <path d="M784.403,933.107C784.054,929.665 785.675,928.631 789.214,930.084C787.966,931.172 786.36,932.124 784.403,933.107Z" style="fill:rgb(241,240,241);fill-rule:nonzero;"/>
    </g>
    <g transform="matrix(1,0,0,1,-247.561613,-232.01445)">
        <path d="M358.999,386.99C357.597,387.667 356.195,388.343 354.448,389.028C355.474,387.353 356.844,385.67 358.631,384.016C359.048,384.045 359.183,384.175 359.121,384.522C359.039,385.576 359.019,386.283 358.999,386.99Z" style="fill:rgb(234,234,234);fill-rule:nonzero;"/>
    </g>
    <g transform="matrix(1,0,0,1,-247.561613,-232.01445)">
        <path d="M871.297,424.754C872.55,424.05 873.927,423.657 876.395,422.952C875.301,425.062 874.7,426.22 874.036,427.727C873.121,427.073 872.27,426.069 871.297,424.754Z" style="fill:rgb(242,242,242);fill-rule:nonzero;"/>
    </g>
    <g transform="matrix(1,0,0,1,-247.561613,-232.01445)">
        <path d="M375.525,363.657C374.827,364.99 373.828,366.486 372.436,367.992C373.103,366.608 374.164,365.215 375.525,363.657Z" style="fill:rgb(243,242,242);fill-rule:nonzero;"/>
    </g>
    <g transform="matrix(1,0,0,1,-247.561613,-232.01445)">
        <path d="M923,799.442C924.019,799.359 925.039,799.718 926.169,800.33C925.428,801.752 924.577,802.922 923.422,804.195C923.079,802.827 923.039,801.355 923,799.442Z" style="fill:rgb(242,242,242);fill-rule:nonzero;"/>
    </g>
    <g transform="matrix(1,0,0,1,-247.561613,-232.01445)">
        <path d="M768.325,941.086C767.484,940.363 766.939,939.651 766.393,938.939C766.566,938.634 766.738,938.328 766.91,938.023C767.912,938.499 768.914,938.976 769.98,939.794C769.57,940.457 769.095,940.777 768.325,941.086Z" style="fill:rgb(241,240,241);fill-rule:nonzero;"/>
    </g>
    <g transform="matrix(1,0,0,1,-247.561613,-232.01445)">
        <path d="M895.49,380.425C894.437,379.664 893.254,378.588 892.101,377.098C893.208,377.826 894.284,378.967 895.49,380.425Z" style="fill:rgb(234,234,234);fill-rule:nonzero;"/>
    </g>
    <g transform="matrix(1,0,0,1,-247.561613,-232.01445)">
        <path d="M332.205,419.798C332.605,420.118 332.763,420.643 332.959,421.579C332.183,422.628 331.37,423.266 330.239,423.929C330.602,422.637 331.282,421.32 332.205,419.798Z" style="fill:rgb(241,240,241);fill-rule:nonzero;"/>
    </g>
    <g transform="matrix(1,0,0,1,-247.561613,-232.01445)">
        <path d="M360.272,381.004C360.985,381.334 361.438,381.82 361.66,382.772C360.681,383.551 359.932,383.863 359.183,384.175C359.183,384.175 359.048,384.045 358.98,383.98C359.278,382.996 359.644,382.077 360.272,381.004Z" style="fill:rgb(234,234,234);fill-rule:nonzero;"/>
    </g>
    <g transform="matrix(1,0,0,1,-247.561613,-232.01445)">
        <path d="M368.26,374.781C367.547,374.686 367.094,374.372 366.352,374.039C366.804,373.346 367.546,372.672 368.618,371.957C368.806,372.798 368.663,373.68 368.26,374.781Z" style="fill:rgb(243,242,242);fill-rule:nonzero;"/>
    </g>
    <g transform="matrix(1,0,0,1,-247.561613,-232.01445)">
        <path d="M887.817,449.29C888.483,449.674 889.172,450.338 889.53,451.147C888.747,450.718 888.293,450.144 887.817,449.29Z" style="fill:rgb(242,242,242);fill-rule:nonzero;"/>
    </g>
    <g transform="matrix(1,0,0,1,-247.561613,-232.01445)">
        <path d="M870.835,353.834C870.36,353.76 869.755,353.398 869.194,352.716C869.728,352.78 870.217,353.164 870.835,353.834Z" style="fill:rgb(234,234,234);fill-rule:nonzero;"/>
    </g>
    <g transform="matrix(1,0,0,1,-247.561613,-232.01445)">
        <path d="M370.617,369.787C370.527,370.431 370.07,371.15 369.263,371.909C369.36,371.254 369.805,370.558 370.617,369.787Z" style="fill:rgb(242,242,242);fill-rule:nonzero;"/>
    </g>
    <g transform="matrix(1,0,0,1,-247.561613,-232.01445)">
        <path d="M749.651,900.758C749.742,900.846 749.436,900.969 749.364,901.009C749.264,900.84 749.353,900.713 749.651,900.758Z" style="fill:rgb(242,242,242);fill-rule:nonzero;"/>
    </g>
    <g transform="matrix(1,0,0,1,-247.561613,-232.01445)">
        <path d="M831.388,348.344C834.091,347.302 836.646,346.604 839.958,345.699C839.517,347.523 839.344,348.281 839.151,349.035C838.548,351.375 840.148,355.573 836.41,355.274C834.523,355.123 832.954,351.009 831.388,348.344Z" style="fill:rgb(246,246,246);fill-rule:nonzero;"/>
    </g>
    <g transform="matrix(1,0,0,1,-247.561613,-232.01445)">
        <path d="M926.167,481.177C927.525,482.751 928.501,484.364 929.478,485.977C928.864,486.426 928.25,486.874 927.635,487.323C924.344,484.797 921.054,482.271 917.763,479.745C918.005,479.512 918.247,479.279 918.489,479.046C920.921,479.769 923.354,480.493 926.167,481.177Z" style="fill:rgb(242,242,242);fill-rule:nonzero;"/>
    </g>
    <g transform="matrix(1,0,0,1,-247.561613,-232.01445)">
        <path d="M359.121,384.522C359.932,383.863 360.681,383.551 361.712,383.117C362.322,384.565 362.967,386.156 362.868,387.699C362.804,388.707 361.662,389.647 361.003,390.617C360.339,389.656 359.675,388.696 359.005,387.363C359.019,386.283 359.039,385.576 359.121,384.522Z" style="fill:rgb(242,242,242);fill-rule:nonzero;"/>
    </g>
    <g transform="matrix(1,0,0,1,-247.561613,-232.01445)">
        <path d="M908.694,458.511C909.118,459.203 909.282,459.764 909.447,460.324C908.885,460.225 908.323,460.127 907.761,460.028C907.986,459.478 908.211,458.929 908.694,458.511Z" style="fill:rgb(242,242,242);fill-rule:nonzero;"/>
    </g>
    <g transform="matrix(1,0,0,1,-247.561613,-232.01445)">
        <path d="M758.143,923.083C759.04,925.739 759.831,928.048 760.762,930.768C755.14,933.516 753.73,938.134 756.18,944.434C753.309,945.664 750.647,946.804 747.986,947.945C747.558,947.701 747.131,947.458 746.704,947.214C748.412,942.353 750.035,937.46 751.857,932.642C753.111,929.328 754.599,926.099 756.117,922.896C756.254,922.605 757.373,922.778 758.143,923.083Z" style="fill:rgb(241,240,241);fill-rule:nonzero;"/>
    </g>
    <g transform="matrix(1,0,0,1,-247.561613,-232.01445)">
        <path d="M766.26,915.359C763.759,915.711 761.457,915.711 759.155,915.711C759.405,913.339 759.651,910.968 759.919,908.598C759.934,908.469 760.122,908.339 760.255,908.247C762.063,906.995 763.876,905.749 765.688,904.501C766.201,907.222 766.796,909.932 767.175,912.672C767.276,913.403 766.716,914.226 766.26,915.359Z" style="fill:rgb(241,240,241);fill-rule:nonzero;"/>
    </g>
    <g transform="matrix(1,0,0,1,-247.561613,-232.01445)">
        <path d="M907.194,758.214C905.018,759.437 903.125,760.421 901.232,761.405C900.839,761.026 900.447,760.647 900.054,760.268C900.9,758.456 901.434,756.374 902.692,754.918C903.681,753.775 905.978,752.454 906.97,752.884C909.299,753.893 909.63,756.03 907.194,758.214Z" style="fill:rgb(241,240,241);fill-rule:nonzero;"/>
    </g>
    <g transform="matrix(1,0,0,1,-247.561613,-232.01445)">
        <path d="M936.02,775.64C937.346,772.778 938.684,770.279 940.022,767.78C940.653,768.109 941.284,768.439 941.914,768.768C940.664,771.361 939.448,773.971 938.083,776.501C937.998,776.658 936.743,776.184 936.02,775.64Z" style="fill:rgb(241,240,241);fill-rule:nonzero;"/>
    </g>
    <g transform="matrix(1,0,0,1,-247.561613,-232.01445)">
        <path d="M878.597,826.787C878.936,823.731 880.272,822.154 883.06,823.955C883.672,824.351 883.484,825.987 883.664,827.052C882.042,827.068 880.419,827.083 878.597,826.787Z" style="fill:rgb(241,240,241);fill-rule:nonzero;"/>
    </g>
    <g transform="matrix(1,0,0,1,-247.561613,-232.01445)">
        <path d="M862.676,845.168C864.804,849.675 860.882,849.945 858.985,851.69C858.512,851.332 858.038,850.975 857.564,850.617C859.151,848.773 860.738,846.928 862.676,845.168Z" style="fill:rgb(241,240,241);fill-rule:nonzero;"/>
    </g>
    <g transform="matrix(1,0,0,1,-247.561613,-232.01445)">
        <path d="M802.017,895.342C803.292,896.018 804.204,896.707 805.115,897.397C804.934,897.858 804.753,898.32 804.571,898.782C803.179,898.573 801.786,898.364 800.394,898.155C800.814,897.221 801.234,896.288 802.017,895.342Z" style="fill:rgb(241,240,241);fill-rule:nonzero;"/>
    </g>
    <g transform="matrix(1,0,0,1,-247.561613,-232.01445)">
        <path d="M775.5,933.972C776.325,933.16 777.124,932.596 778.005,932.231C778.362,932.083 778.898,932.367 779.605,933.607C778.239,933.838 776.873,934.069 775.5,933.972Z" style="fill:rgb(241,240,241);fill-rule:nonzero;"/>
    </g>
</svg>
